HIERARCHY
ROOT joint_Root
{
	OFFSET 0.0 0.0 0.0
	CHANNELS 6 Xposition Yposition Zposition Zrotation Xrotation Yrotation 
	JOINT Hips
	{
		OFFSET -17.1583 93.1646 452.98
		CHANNELS 6 Xposition Yposition Zposition Zrotation Xrotation Yrotation 
		JOINT Spine
		{
			OFFSET 15.7357 0.0 0.0
			CHANNELS 6 Xposition Yposition Zposition Zrotation Xrotation Yrotation 
			JOINT Chest
			{
				OFFSET 8.98455 -0.406207 0.0
				CHANNELS 6 Xposition Yposition Zposition Zrotation Xrotation Yrotation 
				JOINT Neck
				{
					OFFSET 16.3773 0.0 0.0
					CHANNELS 6 Xposition Yposition Zposition Zrotation Xrotation Yrotation 
					JOINT Head
					{
						OFFSET 6.45672 0.0 0.0
						CHANNELS 6 Xposition Yposition Zposition Zrotation Xrotation Yrotation 
						End Site
						{
							OFFSET 0.0 0.0 0.0
						}
					}
				}
				JOINT Shoulder_L
				{
					OFFSET 12.9942 -0.242716 4.98039
					CHANNELS 6 Xposition Yposition Zposition Zrotation Xrotation Yrotation 
					JOINT UpperArm_L
					{
						OFFSET 5.34809 0.0 0.0
						CHANNELS 6 Xposition Yposition Zposition Zrotation Xrotation Yrotation 
						JOINT LowerArm_L
						{
							OFFSET 24.3286 1.87007e-05 0.0
							CHANNELS 6 Xposition Yposition Zposition Zrotation Xrotation Yrotation 
							JOINT Hand_L
							{
								OFFSET 22.2916 0.0 0.0
								CHANNELS 6 Xposition Yposition Zposition Zrotation Xrotation Yrotation 
								End Site
								{
									OFFSET 0.0 0.0 0.0
								}
							}
						}
					}
				}
				JOINT Shoulder_R
				{
					OFFSET 12.9945 -0.242716 -4.98039
					CHANNELS 6 Xposition Yposition Zposition Zrotation Xrotation Yrotation 
					JOINT UpperArm_R
					{
						OFFSET -5.34813 0.0 0.0
						CHANNELS 6 Xposition Yposition Zposition Zrotation Xrotation Yrotation 
						JOINT LowerArm_R
						{
							OFFSET -24.3289 0.000322201 0.0
							CHANNELS 6 Xposition Yposition Zposition Zrotation Xrotation Yrotation 
							JOINT Hand_R
							{
								OFFSET -22.2915 -0.000108084 0.0
								CHANNELS 6 Xposition Yposition Zposition Zrotation Xrotation Yrotation 
								End Site
								{
									OFFSET 0.0 0.0 0.0
								}
							}
						}
					}
				}
			}
		}
		JOINT UpperLeg_L
		{
			OFFSET -2.19248 -6.46944 0.0
			CHANNELS 6 Xposition Yposition Zposition Zrotation Xrotation Yrotation 
			JOINT LowerLeg_L
			{
				OFFSET 39.0811 0.0 -1.23785e-05
				CHANNELS 6 Xposition Yposition Zposition Zrotation Xrotation Yrotation 
				JOINT Foot_L
				{
					OFFSET 40.9854 0.0 -1.26872e-05
					CHANNELS 6 Xposition Yposition Zposition Zrotation Xrotation Yrotation 
					JOINT Toes_L
					{
						OFFSET 11.7543 0.0 0.0
						CHANNELS 6 Xposition Yposition Zposition Zrotation Xrotation Yrotation 
						End Site
						{
							OFFSET 0.0 0.0 0.0
						}
					}
				}
			}
		}
		JOINT UpperLeg_R
		{
			OFFSET -2.19251 6.46944 0.0
			CHANNELS 6 Xposition Yposition Zposition Zrotation Xrotation Yrotation 
			JOINT LowerLeg_R
			{
				OFFSET -39.0811 -0.00228153 -0.0401928
				CHANNELS 6 Xposition Yposition Zposition Zrotation Xrotation Yrotation 
				JOINT Foot_R
				{
					OFFSET -40.9854 0.0 0.0
					CHANNELS 6 Xposition Yposition Zposition Zrotation Xrotation Yrotation 
					JOINT Toes_R
					{
						OFFSET -11.7543 0.0 0.0
						CHANNELS 6 Xposition Yposition Zposition Zrotation Xrotation Yrotation 
						End Site
						{
							OFFSET 0.0 0.0 0.0
						}
					}
				}
			}
		}
	}
}
MOTION
Frames:	4
Frame Time:	0.0333333
0.000000 0.000000 0.000000 0.000000 0.000000 -0.000000 -3.266320 92.595100 1.484270 86.543900 0.190228 6.107960 15.735700 0.000005 -0.000001 75.231500 85.649800 -73.072800 8.984550 -0.406207 -0.000000 0.695853 -2.350230 4.329080 16.377300 -0.000001 -0.000001 9.520980 3.092410 0.634301 6.456720 -0.000001 -0.000000 -8.623040 4.371170 1.460850 12.994200 -0.242716 4.980390 -93.039100 8.984010 -71.222900 5.348090 -0.000007 -0.000001 -72.134700 25.418100 -0.493461 24.328600 0.000019 0.000005 13.835400 29.076900 -26.874100 22.291600 -0.000001 0.000005 -4.127910 5.118350 4.689600 12.994500 -0.242716 -4.980390 87.578600 6.413180 -69.264000 -5.348130 -0.000001 -0.000004 -65.738400 32.358800 -7.449150 -24.328900 0.000322 -0.000009 0.557948 1.746260 -17.754600 -22.291500 -0.000108 -0.000004 -6.498180 5.262180 1.142110 -2.192480 -6.469440 -0.000000 -168.794000 -7.349740 4.268060 39.081100 -0.000007 -0.000012 0.009362 -0.029196 17.779200 40.985400 -0.000006 -0.000013 -1.636460 17.080000 -70.227700 11.754300 -0.000000 0.000003 -0.002098 0.197570 -8.561080 -2.192510 6.469440 -0.000001 179.323000 5.063530 -174.148000 -39.081100 -0.002282 -0.040193 0.020142 -0.064285 14.654800 -40.985400 0.000008 0.000006 -3.340690 10.173800 -69.588700 -11.754300 -0.000006 -0.000006 -0.008918 0.263032 -5.889210
0.000000 0.000000 0.000000 0.000000 0.000000 -0.000000 -3.150830 92.627900 1.449770 86.633600 0.635340 5.864900 15.735700 0.000005 -0.000001 71.341300 85.569200 -69.262700 8.984550 -0.406207 -0.000000 0.688368 -2.962420 4.172790 16.377300 -0.000001 -0.000001 9.351910 3.230480 0.275190 6.456720 -0.000001 -0.000000 -9.290150 4.944600 1.000870 12.994200 -0.242716 4.980390 -93.099800 9.092730 -71.084500 5.348090 -0.000007 -0.000001 -71.942300 21.531600 0.376809 24.328600 0.000019 0.000005 13.964500 28.412300 -27.592800 22.291600 -0.000001 0.000005 -4.212500 5.126540 4.498430 12.994500 -0.242716 -4.980390 87.436700 6.643450 -68.845500 -5.348130 -0.000001 -0.000004 -63.374900 30.652300 -9.298380 -24.328900 0.000322 -0.000009 -0.081307 -0.223119 -19.528200 -22.291500 -0.000108 -0.000004 -14.913300 5.119140 4.770240 -2.192480 -6.469440 -0.000000 -168.929000 -7.581160 3.977820 39.081100 -0.000007 -0.000012 0.015602 -0.049120 17.621900 40.985400 -0.000006 -0.000013 -1.496310 17.672800 -70.100700 11.754300 -0.000000 0.000003 -0.001728 0.192885 -8.751600 -2.192510 6.469440 -0.000001 179.083000 5.625760 -174.221000 -39.081100 -0.002282 -0.040193 0.017680 -0.056217 14.318400 -40.985400 0.000008 0.000006 -3.446450 10.309300 -69.322600 -11.754300 -0.000006 -0.000006 -0.009015 0.263790 -5.858230
0.000000 0.000000 0.000000 0.000000 0.000000 -0.000000 -3.050830 92.740100 1.298380 86.766000 1.052500 5.033280 15.735700 0.000005 -0.000001 68.642500 85.658500 -66.802800 8.984550 -0.406207 -0.000000 0.377441 -3.279870 3.688530 16.377300 -0.000001 -0.000001 8.444820 3.088670 -0.162606 6.456720 -0.000001 -0.000000 -10.370200 5.210730 0.061813 12.994200 -0.242716 4.980390 -93.156100 9.250550 -71.067300 5.348090 -0.000007 -0.000001 -70.755600 18.452300 1.168010 24.328600 0.000019 0.000005 13.487900 26.429100 -28.319800 22.291600 -0.000001 0.000005 -4.328490 5.150210 3.938520 12.994500 -0.242716 -4.980390 87.371300 6.530070 -68.015300 -5.348130 -0.000001 -0.000004 -60.112400 26.612600 -9.789710 -24.328900 0.000322 -0.000009 -0.149294 -0.272498 -28.995800 -22.291500 -0.000108 -0.000004 -25.240900 4.895730 9.492660 -2.192480 -6.469440 -0.000000 -169.121000 -8.317630 3.326850 39.081100 -0.000007 -0.000012 0.021545 -0.070851 16.914500 40.985400 -0.000006 -0.000013 -1.425360 18.599000 -69.872700 11.754300 -0.000000 0.000003 -0.002204 0.198877 -8.507920 -2.192510 6.469440 -0.000001 178.918000 5.661710 -174.753000 -39.081100 -0.002282 -0.040193 0.008703 -0.022370 13.499400 -40.985400 0.000008 0.000006 -4.324290 10.130000 -68.628000 -11.754300 -0.000006 -0.000006 -0.009140 0.264763 -5.818490
0.000000 0.000000 0.000000 0.000000 0.000000 -0.000000 -2.982890 92.883400 1.097670 86.896300 1.690100 3.522350 15.735700 0.000005 -0.000001 65.537000 85.981800 -64.089600 8.984550 -0.406207 -0.000000 -0.405373 -3.430390 2.881660 16.377300 -0.000001 -0.000001 6.802390 2.820010 -0.822386 6.456720 -0.000001 -0.000000 -11.184900 5.063370 -0.911776 12.994200 -0.242716 4.980390 -93.131200 9.151000 -71.018000 5.348090 -0.000007 -0.000001 -69.239500 15.292000 1.922900 24.328600 0.000019 0.000005 13.519900 25.485600 -29.196800 22.291600 -0.000001 0.000005 -3.752640 5.169650 3.468990 12.994500 -0.242716 -4.980390 87.417300 6.176130 -67.252800 -5.348130 -0.000001 -0.000004 -54.294200 23.291000 -8.870750 -24.328900 0.000322 -0.000009 0.896874 0.818380 -47.550400 -22.291500 -0.000108 -0.000004 -28.819300 4.812750 11.076900 -2.192480 -6.469440 -0.000000 -169.427000 -8.978110 2.053210 39.081100 -0.000007 -0.000012 0.022801 -0.079990 15.910700 40.985400 -0.000006 -0.000013 -1.447470 19.607300 -69.464800 11.754300 -0.000000 0.000003 -0.001993 0.196264 -8.614180 -2.192510 6.469440 -0.000001 178.799000 6.256380 -175.809000 -39.081100 -0.002282 -0.040193 0.003253 0.000376 12.316700 -40.985400 0.000008 0.000006 -5.051680 10.172300 -67.762100 -11.754300 -0.000006 -0.000006 -0.009293 0.265941 -5.770340
